<?xml version="1.0" encoding="UTF-8"?>
<!DOCTYPE svg PUBLIC "-//W3C//DTD SVG 1.1//EN" "http://www.w3.org/Graphics/SVG/1.1/DTD/svg11.dtd">
<!-- Creator: CorelDRAW -->
<svg xmlns="http://www.w3.org/2000/svg" xml:space="preserve" width="24px" height="24px" version="1.1" style="shape-rendering:geometricPrecision; text-rendering:geometricPrecision; image-rendering:optimizeQuality; fill-rule:evenodd; clip-rule:evenodd"
viewBox="0 0 24 24"
 xmlns:xlink="http://www.w3.org/1999/xlink"
 xmlns:xodm="http://www.corel.com/coreldraw/odm/2003">
 <defs>
  <style type="text/css">
   <![CDATA[
    .fil47 {fill:#5EC7FB;fill-rule:nonzero}
    .fil48 {fill:#5EC8FB;fill-rule:nonzero}
    .fil49 {fill:#5EC9FC;fill-rule:nonzero}
    .fil50 {fill:#5ECAFC;fill-rule:nonzero}
    .fil40 {fill:#5FC1F9;fill-rule:nonzero}
    .fil41 {fill:#5FC2F9;fill-rule:nonzero}
    .fil42 {fill:#5FC3FA;fill-rule:nonzero}
    .fil43 {fill:#5FC4FA;fill-rule:nonzero}
    .fil44 {fill:#5FC5FA;fill-rule:nonzero}
    .fil45 {fill:#5FC6FB;fill-rule:nonzero}
    .fil46 {fill:#5FC7FB;fill-rule:nonzero}
    .fil37 {fill:#78C0FE;fill-rule:nonzero}
    .fil38 {fill:#78C1FF;fill-rule:nonzero}
    .fil0 {fill:#78C2FF;fill-rule:nonzero}
    .fil33 {fill:#79BBFC;fill-rule:nonzero}
    .fil34 {fill:#79BDFD;fill-rule:nonzero}
    .fil35 {fill:#79BEFE;fill-rule:nonzero}
    .fil36 {fill:#79BFFE;fill-rule:nonzero}
    .fil30 {fill:#7AB5FA;fill-rule:nonzero}
    .fil31 {fill:#7AB7FB;fill-rule:nonzero}
    .fil32 {fill:#7AB9FC;fill-rule:nonzero}
    .fil28 {fill:#7BB1F9;fill-rule:nonzero}
    .fil29 {fill:#7BB3F9;fill-rule:nonzero}
    .fil26 {fill:#7CACF7;fill-rule:nonzero}
    .fil27 {fill:#7CAEF8;fill-rule:nonzero}
    .fil24 {fill:#7DA6F5;fill-rule:nonzero}
    .fil25 {fill:#7DA9F6;fill-rule:nonzero}
    .fil22 {fill:#7EA0F2;fill-rule:nonzero}
    .fil23 {fill:#7EA3F4;fill-rule:nonzero}
    .fil21 {fill:#7F9DF1;fill-rule:nonzero}
    .fil19 {fill:#8096EF;fill-rule:nonzero}
    .fil20 {fill:#8099F0;fill-rule:nonzero}
    .fil17 {fill:#818FEC;fill-rule:nonzero}
    .fil18 {fill:#8193ED;fill-rule:nonzero}
    .fil16 {fill:#828BEB;fill-rule:nonzero}
    .fil14 {fill:#8384E8;fill-rule:nonzero}
    .fil15 {fill:#8388EA;fill-rule:nonzero}
    .fil13 {fill:#8481E7;fill-rule:nonzero}
    .fil11 {fill:#8579E4;fill-rule:nonzero}
    .fil12 {fill:#857DE5;fill-rule:nonzero}
    .fil10 {fill:#8675E3;fill-rule:nonzero}
    .fil9 {fill:#8772E1;fill-rule:nonzero}
    .fil7 {fill:#886ADF;fill-rule:nonzero}
    .fil8 {fill:#886EE0;fill-rule:nonzero}
    .fil6 {fill:#8966DD;fill-rule:nonzero}
    .fil4 {fill:#8A5FDA;fill-rule:nonzero}
    .fil5 {fill:#8A63DC;fill-rule:nonzero}
    .fil3 {fill:#8B5CD9;fill-rule:nonzero}
    .fil1 {fill:#8C54D7;fill-rule:nonzero}
    .fil2 {fill:#8C58D8;fill-rule:nonzero}
    .fil39 {fill:#5A5655;fill-rule:nonzero;fill-opacity:0.149020}
    .fil51 {fill:url(#id2);fill-rule:nonzero}
   ]]>
  </style>
    <clipPath id="id0" style="clip-rule:nonzero">
     <path d="M13.55 9.86l7.34 4.89c0.32,0.21 0.51,0.57 0.51,0.96 0,0.38 -0.19,0.74 -0.51,0.95l-7.34 4.9c-0.47,0.31 -1.03,0.48 -1.59,0.48 -0.57,0 -1.13,-0.17 -1.6,-0.49l-7.34 -4.89c-0.32,-0.21 -0.51,-0.57 -0.51,-0.95 0,-0.39 0.19,-0.75 0.51,-0.96l7.34 -4.89c0.47,-0.32 1.03,-0.49 1.6,-0.49 0.56,0 1.12,0.17 1.59,0.49z"/>
    </clipPath>
    <clipPath id="id1" style="clip-rule:nonzero">
     <path d="M13.55 6.11l7.34 4.89c0.32,0.22 0.51,0.57 0.51,0.96 0,0.39 -0.19,0.75 -0.51,0.96l-7.34 4.89c-0.47,0.32 -1.03,0.48 -1.59,0.48 -0.57,0 -1.13,-0.16 -1.6,-0.48l-7.34 -4.89c-0.32,-0.21 -0.51,-0.57 -0.51,-0.96 0,-0.39 0.19,-0.74 0.51,-0.96l7.34 -4.89c0.47,-0.31 1.03,-0.48 1.6,-0.48 0.56,0 1.12,0.17 1.59,0.48z"/>
    </clipPath>
  <linearGradient id="id2" gradientUnits="userSpaceOnUse" x1="7.81" y1="1.97" x2="16.1" y2="14.33">
   <stop offset="0" style="stop-opacity:1; stop-color:#6DB0F2"/>
   <stop offset="0.329412" style="stop-opacity:1; stop-color:#61C4F1"/>
   <stop offset="1" style="stop-opacity:1; stop-color:#54D9F0"/>
  </linearGradient>
 </defs>
 <g id="Layer_x0020_1">
  <metadata id="CorelCorpID_0Corel-Layer"/>
  <g>
   <g style="clip-path:url(#id0)">
    <polygon class="fil0" points="21.92,14.83 17.38,25.78 1.99,16.59 6.53,5.63 "/>
    <path id="_1" class="fil1" d="M20.97 36.09c-3.44,-2.06 -4.94,-6.85 -3.35,-10.69 1.59,-3.84 5.68,-5.28 9.12,-3.22 3.45,2.05 4.95,6.84 3.35,10.68 -1.59,3.84 -5.67,5.28 -9.12,3.23zm-0.19 0.45c3.67,2.19 8.02,0.65 9.72,-3.44 1.7,-4.09 0.1,-9.19 -3.57,-11.38 -3.67,-2.19 -8.02,-0.65 -9.72,3.44 -1.7,4.09 -0.1,9.19 3.57,11.38z"/>
    <path id="_2" class="fil2" d="M20.85 36.39c-3.6,-2.15 -5.16,-7.14 -3.5,-11.15 1.66,-4.01 5.92,-5.51 9.52,-3.37 3.59,2.15 5.16,7.14 3.49,11.15 -1.66,4.01 -5.92,5.51 -9.51,3.37zm-0.19 0.45c3.82,2.28 8.35,0.68 10.11,-3.58 1.77,-4.26 0.11,-9.56 -3.71,-11.84 -3.82,-2.28 -8.35,-0.68 -10.12,3.58 -1.77,4.26 -0.1,9.56 3.72,11.84z"/>
    <path id="_3" class="fil3" d="M20.72 36.69c-3.74,-2.24 -5.38,-7.44 -3.64,-11.61 1.73,-4.18 6.17,-5.75 9.91,-3.51 3.75,2.24 5.38,7.44 3.65,11.61 -1.73,4.18 -6.17,5.75 -9.92,3.51zm-0.19 0.45c3.97,2.37 8.68,0.71 10.51,-3.72 1.84,-4.42 0.11,-9.93 -3.86,-12.3 -3.97,-2.37 -8.67,-0.71 -10.51,3.72 -1.84,4.42 -0.11,9.93 3.86,12.3z"/>
    <path id="_4" class="fil4" d="M20.59 36.99c-3.89,-2.32 -5.59,-7.73 -3.79,-12.07 1.81,-4.34 6.42,-5.98 10.32,-3.65 3.89,2.32 5.59,7.73 3.79,12.07 -1.8,4.35 -6.42,5.98 -10.32,3.65zm-0.18 0.46c4.12,2.46 9,0.73 10.9,-3.86 1.91,-4.6 0.12,-10.31 -4,-12.78 -4.12,-2.46 -9.01,-0.73 -10.91,3.86 -1.91,4.6 -0.11,10.31 4.01,12.78z"/>
    <path id="_5" class="fil5" d="M20.47 37.29c-4.04,-2.41 -5.81,-8.03 -3.94,-12.53 1.87,-4.51 6.67,-6.21 10.71,-3.79 4.05,2.41 5.81,8.03 3.94,12.54 -1.87,4.5 -6.67,6.2 -10.71,3.78zm-0.19 0.46c4.27,2.55 9.33,0.76 11.31,-4 1.97,-4.76 0.11,-10.69 -4.16,-13.24 -4.27,-2.55 -9.33,-0.76 -11.3,4 -1.98,4.76 -0.12,10.69 4.15,13.24z"/>
    <path id="_6" class="fil6" d="M20.34 37.6c-4.19,-2.51 -6.02,-8.33 -4.08,-13.01 1.94,-4.67 6.92,-6.43 11.11,-3.93 4.19,2.51 6.02,8.33 4.08,13.01 -1.94,4.67 -6.91,6.43 -11.11,3.93zm-0.18 0.45c4.41,2.64 9.65,0.79 11.7,-4.14 2.04,-4.93 0.12,-11.06 -4.3,-13.7 -4.42,-2.64 -9.66,-0.79 -11.7,4.14 -2.05,4.93 -0.12,11.06 4.3,13.7z"/>
    <path id="_7" class="fil7" d="M20.22 37.9c-4.35,-2.6 -6.24,-8.63 -4.23,-13.47 2.01,-4.84 7.16,-6.66 11.5,-4.07 4.35,2.6 6.24,8.63 4.23,13.47 -2.01,4.84 -7.16,6.66 -11.5,4.07zm-0.19 0.45c4.57,2.73 9.99,0.82 12.1,-4.28 2.11,-5.09 0.12,-11.43 -4.45,-14.16 -4.57,-2.73 -9.98,-0.82 -12.1,4.28 -2.11,5.09 -0.12,11.43 4.45,14.16z"/>
    <path id="_8" class="fil8" d="M20.09 38.2c-4.49,-2.68 -6.45,-8.92 -4.37,-13.93 2.08,-5.01 7.41,-6.9 11.9,-4.21 4.49,2.68 6.45,8.92 4.37,13.93 -2.08,5.01 -7.4,6.9 -11.9,4.21zm-0.18 0.46c4.71,2.81 10.31,0.83 12.49,-4.43 2.18,-5.26 0.13,-11.81 -4.59,-14.62 -4.72,-2.82 -10.31,-0.84 -12.5,4.42 -2.18,5.26 -0.12,11.81 4.6,14.63z"/>
    <path id="_9" class="fil9" d="M19.97 38.5c-4.65,-2.77 -6.67,-9.22 -4.52,-14.39 2.15,-5.18 7.65,-7.13 12.3,-4.35 4.64,2.77 6.66,9.22 4.51,14.39 -2.14,5.18 -7.65,7.13 -12.29,4.35zm-0.19 0.46c4.87,2.91 10.64,0.86 12.89,-4.56 2.25,-5.43 0.13,-12.19 -4.74,-15.1 -4.86,-2.91 -10.64,-0.86 -12.89,4.56 -2.25,5.43 -0.13,12.19 4.74,15.1z"/>
    <path id="_10" class="fil10" d="M19.84 38.81c-4.79,-2.87 -6.88,-9.52 -4.66,-14.86 2.22,-5.35 7.9,-7.36 12.69,-4.5 4.79,2.87 6.88,9.52 4.66,14.87 -2.21,5.34 -7.89,7.35 -12.69,4.49zm-0.19 0.45c5.02,3 10.97,0.89 13.29,-4.7 2.32,-5.6 0.14,-12.56 -4.88,-15.56 -5.02,-3 -10.97,-0.89 -13.29,4.7 -2.32,5.6 -0.13,12.56 4.88,15.56z"/>
    <path id="_11" class="fil11" d="M19.72 39.11c-4.95,-2.95 -7.1,-9.82 -4.81,-15.33 2.28,-5.51 8.14,-7.58 13.09,-4.63 4.94,2.96 7.09,9.82 4.81,15.33 -2.29,5.51 -8.15,7.58 -13.09,4.63zm-0.19 0.45c5.17,3.09 11.29,0.92 13.68,-4.84 2.39,-5.76 0.14,-12.93 -5.03,-16.02 -5.16,-3.09 -11.29,-0.92 -13.68,4.84 -2.39,5.76 -0.14,12.93 5.03,16.02z"/>
    <path id="_12" class="fil12" d="M19.59 39.41c-5.09,-3.04 -7.31,-10.11 -4.95,-15.79 2.35,-5.68 8.39,-7.81 13.48,-4.77 5.09,3.04 7.31,10.11 4.96,15.79 -2.36,5.68 -8.4,7.81 -13.49,4.77zm-0.19 0.45c5.32,3.18 11.63,0.95 14.08,-4.98 2.46,-5.93 0.15,-13.31 -5.17,-16.48 -5.32,-3.18 -11.62,-0.95 -14.08,4.98 -2.46,5.93 -0.14,13.31 5.17,16.48z"/>
    <path id="_13" class="fil13" d="M19.47 39.71c-5.25,-3.13 -7.53,-10.41 -5.11,-16.25 2.43,-5.85 8.64,-8.05 13.89,-4.91 5.24,3.13 7.52,10.41 5.1,16.25 -2.43,5.85 -8.64,8.05 -13.88,4.91zm-0.19 0.46c5.46,3.26 11.95,0.97 14.48,-5.13 2.52,-6.09 0.14,-13.68 -5.32,-16.95 -5.47,-3.26 -11.95,-0.97 -14.48,5.13 -2.53,6.09 -0.15,13.68 5.32,16.95z"/>
    <path id="_14" class="fil14" d="M19.34 40.02c-5.39,-3.23 -7.74,-10.71 -5.25,-16.72 2.5,-6.01 8.89,-8.28 14.28,-5.06 5.4,3.23 7.74,10.71 5.25,16.72 -2.49,6.01 -8.89,8.28 -14.28,5.06zm-0.19 0.45c5.62,3.35 12.28,1 14.88,-5.26 2.59,-6.27 0.15,-14.06 -5.47,-17.42 -5.62,-3.35 -12.28,-1 -14.87,5.26 -2.6,6.27 -0.15,14.06 5.46,17.42z"/>
    <path id="_15" class="fil15" d="M19.21 40.32c-5.54,-3.31 -7.95,-11.01 -5.39,-17.18 2.57,-6.18 9.14,-8.51 14.68,-5.2 5.54,3.31 7.95,11.01 5.39,17.19 -2.56,6.17 -9.13,8.5 -14.68,5.19zm-0.18 0.45c5.76,3.45 12.6,1.03 15.27,-5.4 2.66,-6.43 0.15,-14.44 -5.61,-17.88 -5.77,-3.45 -12.61,-1.03 -15.28,5.4 -2.66,6.43 -0.15,14.44 5.62,17.88z"/>
    <path id="_16" class="fil16" d="M19.09 40.62c-5.69,-3.4 -8.17,-11.3 -5.54,-17.65 2.63,-6.34 9.38,-8.73 15.07,-5.33 5.7,3.4 8.17,11.3 5.54,17.65 -2.63,6.34 -9.38,8.73 -15.07,5.33zm-0.19 0.45c5.92,3.54 12.93,1.06 15.67,-5.54 2.74,-6.6 0.16,-14.81 -5.76,-18.34 -5.91,-3.54 -12.93,-1.06 -15.67,5.54 -2.73,6.6 -0.15,14.81 5.76,18.34z"/>
    <path id="_17" class="fil17" d="M18.96 40.92c-5.84,-3.49 -8.38,-11.6 -5.68,-18.11 2.7,-6.51 9.63,-8.96 15.47,-5.47 5.84,3.49 8.39,11.6 5.68,18.11 -2.7,6.51 -9.62,8.96 -15.47,5.47zm-0.18 0.46c6.06,3.62 13.25,1.08 16.06,-5.69 2.81,-6.76 0.16,-15.18 -5.9,-18.81 -6.07,-3.62 -13.26,-1.08 -16.07,5.69 -2.8,6.76 -0.16,15.18 5.91,18.81z"/>
    <path id="_18" class="fil18" d="M18.84 41.23c-5.99,-3.58 -8.6,-11.9 -5.83,-18.58 2.77,-6.68 9.87,-9.19 15.86,-5.61 6,3.57 8.61,11.89 5.83,18.57 -2.77,6.68 -9.87,9.2 -15.86,5.62zm-0.19 0.45c6.22,3.71 13.59,1.11 16.46,-5.83 2.88,-6.93 0.17,-15.55 -6.05,-19.27 -6.21,-3.71 -13.58,-1.1 -16.46,5.83 -2.87,6.93 -0.17,15.56 6.05,19.27z"/>
    <path id="_19" class="fil19" d="M18.71 41.53c-6.14,-3.67 -8.81,-12.2 -5.97,-19.04 2.84,-6.85 10.12,-9.43 16.26,-5.76 6.14,3.67 8.82,12.2 5.98,19.04 -2.84,6.85 -10.13,9.43 -16.27,5.76zm-0.19 0.45c6.37,3.8 13.92,1.13 16.86,-5.96 2.95,-7.1 0.17,-15.94 -6.19,-19.74 -6.37,-3.8 -13.91,-1.13 -16.86,5.96 -2.94,7.1 -0.17,15.94 6.19,19.74z"/>
    <path id="_20" class="fil20" d="M18.59 41.83c-6.29,-3.76 -9.03,-12.49 -6.12,-19.5 2.91,-7.02 10.36,-9.66 16.66,-5.9 6.29,3.76 9.03,12.49 6.12,19.51 -2.91,7.01 -10.37,9.65 -16.66,5.89zm-0.19 0.45c6.52,3.9 14.24,1.16 17.25,-6.1 3.02,-7.27 0.18,-16.31 -6.34,-20.2 -6.51,-3.9 -14.24,-1.16 -17.25,6.1 -3.02,7.27 -0.18,16.31 6.34,20.2z"/>
    <path id="_21" class="fil21" d="M18.46 42.13c-6.44,-3.85 -9.25,-12.79 -6.27,-19.97 2.98,-7.18 10.62,-9.88 17.06,-6.03 6.44,3.85 9.25,12.79 6.27,19.97 -2.98,7.18 -10.62,9.88 -17.06,6.03zm-0.19 0.46c6.67,3.98 14.57,1.18 17.66,-6.25 3.08,-7.43 0.17,-16.68 -6.49,-20.67 -6.67,-3.98 -14.57,-1.18 -17.65,6.25 -3.09,7.43 -0.18,16.68 6.48,20.67z"/>
    <path id="_22" class="fil22" d="M18.34 42.43c-6.59,-3.93 -9.47,-13.08 -6.42,-20.43 3.05,-7.35 10.87,-10.11 17.46,-6.17 6.59,3.93 9.46,13.08 6.41,20.43 -3.05,7.35 -10.86,10.11 -17.45,6.17zm-0.19 0.46c6.81,4.07 14.89,1.21 18.05,-6.39 3.15,-7.6 0.18,-17.06 -6.64,-21.13 -6.81,-4.07 -14.89,-1.21 -18.04,6.39 -3.16,7.6 -0.19,17.06 6.63,21.13z"/>
    <path id="_23" class="fil23" d="M18.21 42.74c-6.74,-4.03 -9.68,-13.39 -6.56,-20.9 3.12,-7.52 11.11,-10.34 17.85,-6.32 6.74,4.03 9.68,13.39 6.56,20.9 -3.12,7.52 -11.11,10.34 -17.85,6.32zm-0.19 0.45c6.97,4.16 15.23,1.24 18.45,-6.53 3.22,-7.76 0.19,-17.43 -6.78,-21.59 -6.96,-4.16 -15.22,-1.24 -18.44,6.53 -3.23,7.76 -0.19,17.43 6.77,21.59z"/>
    <path id="_24" class="fil24" d="M18.09 43.04c-6.89,-4.12 -9.9,-13.68 -6.71,-21.36 3.19,-7.69 11.36,-10.58 18.25,-6.46 6.89,4.12 9.89,13.68 6.7,21.36 -3.18,7.69 -11.35,10.58 -18.24,6.46zm-0.19 0.45c7.11,4.25 15.55,1.27 18.84,-6.66 3.29,-7.94 0.19,-17.81 -6.92,-22.06 -7.12,-4.25 -15.55,-1.27 -18.85,6.66 -3.29,7.94 -0.19,17.81 6.93,22.06z"/>
    <path id="_25" class="fil25" d="M17.96 43.34c-7.04,-4.2 -10.11,-13.98 -6.85,-21.83 3.26,-7.84 11.6,-10.8 18.64,-6.59 7.04,4.2 10.11,13.98 6.85,21.83 -3.25,7.84 -11.6,10.8 -18.64,6.59zm-0.19 0.46c7.27,4.34 15.88,1.29 19.24,-6.81 3.36,-8.1 0.2,-18.18 -7.07,-22.53 -7.26,-4.33 -15.88,-1.29 -19.24,6.81 -3.36,8.1 -0.19,18.18 7.07,22.53z"/>
    <path id="_26" class="fil26" d="M17.83 43.64c-7.18,-4.29 -10.32,-14.27 -6.99,-22.29 3.32,-8.01 11.85,-11.03 19.04,-6.73 7.19,4.29 10.32,14.27 6.99,22.29 -3.32,8.01 -11.85,11.03 -19.04,6.73zm-0.18 0.46c7.41,4.43 16.2,1.32 19.63,-6.95 3.43,-8.26 0.2,-18.56 -7.21,-22.99 -7.42,-4.43 -16.21,-1.32 -19.64,6.95 -3.43,8.27 -0.2,18.56 7.22,22.99z"/>
    <path id="_27" class="fil27" d="M17.71 43.95c-7.34,-4.39 -10.54,-14.58 -7.14,-22.76 3.39,-8.18 12.09,-11.26 19.43,-6.88 7.34,4.39 10.54,14.58 7.15,22.76 -3.4,8.18 -12.1,11.26 -19.44,6.88zm-0.19 0.45c7.57,4.52 16.53,1.35 20.03,-7.09 3.5,-8.43 0.21,-18.93 -7.36,-23.45 -7.56,-4.52 -16.53,-1.35 -20.03,7.09 -3.5,8.43 -0.2,18.93 7.36,23.45z"/>
    <path id="_28" class="fil28" d="M17.58 44.25c-7.49,-4.48 -10.75,-14.87 -7.28,-23.22 3.46,-8.35 12.34,-11.49 19.83,-7.02 7.49,4.48 10.75,14.87 7.29,23.22 -3.47,8.35 -12.35,11.49 -19.84,7.02zm-0.18 0.45c7.71,4.61 16.86,1.37 20.42,-7.22 3.57,-8.61 0.21,-19.31 -7.5,-23.92 -7.72,-4.61 -16.86,-1.37 -20.43,7.23 -3.57,8.6 -0.21,19.3 7.51,23.91z"/>
    <path id="_29" class="fil29" d="M17.46 44.55c-7.64,-4.56 -10.97,-15.17 -7.43,-23.68 3.53,-8.52 12.59,-11.72 20.23,-7.16 7.63,4.56 10.96,15.17 7.43,23.68 -3.53,8.52 -12.59,11.72 -20.23,7.16zm-0.19 0.45c7.86,4.7 17.19,1.4 20.83,-7.36 3.63,-8.77 0.21,-19.69 -7.66,-24.38 -7.86,-4.7 -17.18,-1.4 -20.82,7.36 -3.64,8.77 -0.21,19.69 7.65,24.38z"/>
    <path id="_30" class="fil30" d="M17.33 44.85c-7.79,-4.65 -11.18,-15.46 -7.58,-24.15 3.61,-8.68 12.84,-11.95 20.63,-7.29 7.79,4.65 11.18,15.46 7.58,24.15 -3.6,8.68 -12.84,11.95 -20.63,7.29zm-0.19 0.46c8.02,4.79 17.52,1.42 21.23,-7.51 3.7,-8.94 0.21,-20.06 -7.8,-24.85 -8.02,-4.78 -17.52,-1.42 -21.22,7.51 -3.71,8.94 -0.22,20.06 7.79,24.85z"/>
    <path id="_31" class="fil31" d="M17.21 45.16c-7.94,-4.75 -11.4,-15.77 -7.73,-24.62 3.67,-8.85 13.09,-12.18 21.03,-7.44 7.93,4.75 11.39,15.77 7.72,24.62 -3.67,8.85 -13.08,12.18 -21.02,7.44zm-0.19 0.45c8.16,4.88 17.84,1.45 21.62,-7.65 3.77,-9.1 0.22,-20.43 -7.95,-25.31 -8.16,-4.88 -17.84,-1.45 -21.61,7.65 -3.78,9.1 -0.22,20.43 7.94,25.31z"/>
    <path id="_32" class="fil32" d="M17.08 45.46c-8.09,-4.83 -11.61,-16.06 -7.87,-25.08 3.74,-9.02 13.33,-12.41 21.42,-7.58 8.09,4.84 11.61,16.06 7.87,25.08 -3.74,9.02 -13.33,12.41 -21.42,7.58zm-0.19 0.45c8.32,4.97 18.17,1.48 22.02,-7.79 3.84,-9.27 0.22,-20.81 -8.09,-25.77 -8.31,-4.97 -18.17,-1.48 -22.02,7.79 -3.84,9.27 -0.22,20.81 8.09,25.77z"/>
    <path id="_33" class="fil33" d="M16.96 45.76c-8.24,-4.92 -11.83,-16.36 -8.02,-25.54 3.81,-9.19 13.58,-12.64 21.82,-7.72 8.23,4.92 11.82,16.36 8.01,25.54 -3.81,9.19 -13.57,12.64 -21.81,7.72zm-0.19 0.45c8.46,5.06 18.5,1.51 22.41,-7.92 3.91,-9.44 0.23,-21.19 -8.24,-26.24 -8.46,-5.06 -18.49,-1.51 -22.41,7.92 -3.91,9.44 -0.22,21.19 8.24,26.24z"/>
    <path id="_34" class="fil34" d="M16.83 46.06c-8.39,-5.01 -12.04,-16.65 -8.16,-26 3.88,-9.36 13.82,-12.87 22.21,-7.86 8.39,5.01 12.04,16.65 8.16,26 -3.88,9.36 -13.82,12.87 -22.21,7.86zm-0.19 0.46c8.62,5.14 18.83,1.53 22.81,-8.07 3.99,-9.61 0.23,-21.56 -8.38,-26.71 -8.61,-5.14 -18.82,-1.53 -22.81,8.07 -3.98,9.61 -0.23,21.56 8.38,26.71z"/>
    <path id="_35" class="fil35" d="M16.71 46.37c-8.54,-5.11 -12.26,-16.96 -8.31,-26.48 3.95,-9.51 14.07,-13.1 22.61,-8 8.53,5.11 12.25,16.96 8.31,26.48 -3.95,9.52 -14.08,13.1 -22.61,8zm-0.19 0.45c8.76,5.23 19.15,1.56 23.2,-8.21 4.06,-9.77 0.24,-21.93 -8.52,-27.17 -8.77,-5.23 -19.16,-1.56 -23.21,8.21 -4.05,9.77 -0.23,21.93 8.53,27.17z"/>
    <path id="_36" class="fil36" d="M16.58 46.67c-8.69,-5.19 -12.47,-17.25 -8.45,-26.94 4.02,-9.68 14.32,-13.33 23,-8.14 8.69,5.19 12.48,17.25 8.46,26.94 -4.02,9.68 -14.32,13.33 -23.01,8.14zm-0.19 0.45c8.91,5.33 19.48,1.59 23.6,-8.35 4.13,-9.93 0.24,-22.31 -8.67,-27.63 -8.91,-5.33 -19.48,-1.59 -23.6,8.35 -4.12,9.94 -0.24,22.31 8.67,27.63z"/>
    <path id="_37" class="fil37" d="M16.46 46.97c-8.84,-5.28 -12.69,-17.55 -8.6,-27.4 4.08,-9.85 14.56,-13.56 23.4,-8.28 8.83,5.28 12.69,17.55 8.6,27.4 -4.09,9.85 -14.57,13.56 -23.4,8.28zm-0.19 0.45c9.06,5.42 19.8,1.62 23.99,-8.49 4.2,-10.1 0.25,-22.68 -8.81,-28.09 -9.07,-5.42 -19.81,-1.62 -24,8.49 -4.19,10.1 -0.25,22.68 8.82,28.09z"/>
    <path id="_38" class="fil38" d="M16.33 47.27c-8.99,-5.37 -12.9,-17.84 -8.75,-27.86 4.16,-10.02 14.82,-13.79 23.8,-8.42 8.99,5.37 12.91,17.84 8.75,27.86 -4.16,10.02 -14.81,13.79 -23.8,8.42zm-0.19 0.46c9.21,5.5 20.14,1.64 24.4,-8.63 4.26,-10.28 0.24,-23.06 -8.97,-28.57 -9.21,-5.5 -20.13,-1.64 -24.39,8.64 -4.26,10.27 -0.25,23.05 8.96,28.56z"/>
    <path id="_39" class="fil0" d="M16.2 47.57c-9.13,-5.45 -13.11,-18.14 -8.89,-28.32 4.23,-10.19 15.06,-14.02 24.2,-8.56 9.14,5.45 13.12,18.14 8.89,28.32 -4.23,10.19 -15.06,14.02 -24.2,8.56zm-0.18 0.46c9.36,5.59 20.46,1.66 24.79,-8.77 4.33,-10.44 0.25,-23.43 -9.11,-29.03 -9.36,-5.59 -20.46,-1.66 -24.79,8.77 -4.33,10.44 -0.26,23.44 9.11,29.03z"/>
    <path id="_40" class="fil0" d="M16.08 47.88c-9.29,-5.55 -13.33,-18.44 -9.04,-28.8 4.3,-10.35 15.31,-14.24 24.59,-8.7 9.29,5.55 13.34,18.44 9.04,28.8 -4.29,10.35 -15.3,14.25 -24.59,8.7zm-0.19 0.45c9.51,5.68 20.79,1.69 25.19,-8.91 4.4,-10.6 0.25,-23.81 -9.26,-29.49 -9.51,-5.68 -20.79,-1.69 -25.19,8.91 -4.4,10.6 -0.25,23.81 9.26,29.49z"/>
    <path id="_41" class="fil0" d="M15.95 48.18c-9.43,-5.64 -13.55,-18.74 -9.18,-29.26 4.37,-10.52 15.55,-14.48 24.99,-8.84 9.44,5.64 13.55,18.74 9.18,29.26 -4.36,10.52 -15.55,14.48 -24.99,8.84zm-0.12 0.3c9.58,5.73 20.95,1.71 25.38,-8.98 4.44,-10.69 0.26,-23.99 -9.32,-29.72 -9.59,-5.73 -20.96,-1.71 -25.39,8.98 -4.44,10.69 -0.26,23.99 9.33,29.72z"/>
   </g>
  </g>
  <path class="fil39" d="M13.53 8.1l7.29 4.86c0,0 -1.31,0.87 -1.31,0.87 0.36,0.24 1.47,0.99 1.47,0.99l-7.44 4.98c-0.48,0.31 -1.03,0.48 -1.6,0.48 -0.57,0 -1.13,-0.16 -1.6,-0.48l-7.42 -4.97c-0.04,-0.03 1.31,-0.89 1.47,-1 -0.48,-0.32 -1.32,-0.88 -1.32,-0.88l7.27 -4.85c0.47,-0.31 1.03,-0.48 1.6,-0.48 0.57,0 1.12,0.17 1.59,0.48z"/>
  <g>
   <g style="clip-path:url(#id1)">
    <path class="fil40" d="M17.23 17.46c3.13,-3.42 8.9,-4 12.87,-1.3 3.98,2.69 4.66,7.65 1.52,11.07 -3.14,3.42 -8.9,4.01 -12.87,1.31 -3.98,-2.7 -4.66,-7.66 -1.52,-11.08zm-0.49 -0.33c-3.35,3.65 -2.63,8.95 1.62,11.83 4.24,2.88 10.4,2.26 13.75,-1.4 3.35,-3.65 2.62,-8.95 -1.62,-11.83 -4.25,-2.88 -10.4,-2.25 -13.75,1.4z"/>
    <path id="_1_6309" class="fil41" d="M16.9 17.24c3.28,-3.58 9.3,-4.19 13.46,-1.37 4.15,2.82 4.87,8.01 1.59,11.58 -3.28,3.58 -9.31,4.19 -13.46,1.37 -4.16,-2.82 -4.87,-8.01 -1.59,-11.58zm-0.49 -0.33c-3.49,3.8 -2.74,9.33 1.69,12.33 4.43,3.01 10.85,2.35 14.34,-1.45 3.49,-3.81 2.73,-9.33 -1.69,-12.34 -4.43,-3 -10.85,-2.35 -14.34,1.46z"/>
    <path id="_2_6310" class="fil41" d="M16.57 17.02c3.42,-3.73 9.71,-4.37 14.05,-1.43 4.33,2.95 5.08,8.36 1.65,12.09 -3.42,3.73 -9.71,4.36 -14.04,1.42 -4.34,-2.94 -5.08,-8.35 -1.66,-12.08zm-0.49 -0.34c-3.63,3.97 -2.84,9.72 1.76,12.84 4.61,3.13 11.29,2.45 14.92,-1.51 3.64,-3.97 2.85,-9.71 -1.75,-12.84 -4.61,-3.13 -11.29,-2.45 -14.93,1.51z"/>
    <path id="_3_6311" class="fil41" d="M16.25 16.79c3.56,-3.88 10.11,-4.55 14.63,-1.48 4.51,3.07 5.28,8.7 1.72,12.59 -3.56,3.88 -10.11,4.55 -14.63,1.48 -4.52,-3.06 -5.29,-8.7 -1.72,-12.59zm-0.5 -0.33c-3.77,4.12 -2.95,10.09 1.83,13.34 4.79,3.25 11.73,2.55 15.51,-1.57 3.78,-4.12 2.96,-10.09 -1.83,-13.34 -4.78,-3.25 -11.73,-2.55 -15.51,1.57z"/>
    <path id="_4_6312" class="fil41" d="M15.92 16.57c3.71,-4.04 10.52,-4.73 15.21,-1.54 4.7,3.19 5.5,9.05 1.8,13.09 -3.71,4.04 -10.52,4.73 -15.22,1.54 -4.69,-3.19 -5.5,-9.05 -1.79,-13.09zm-0.49 -0.33c-3.92,4.27 -3.07,10.47 1.9,13.85 4.96,3.37 12.17,2.64 16.09,-1.64 3.92,-4.27 3.07,-10.47 -1.9,-13.84 -4.97,-3.38 -12.17,-2.65 -16.09,1.63z"/>
    <path id="_5_6313" class="fil42" d="M15.59 16.35c3.85,-4.2 10.92,-4.91 15.8,-1.6 4.88,3.31 5.71,9.4 1.87,13.59 -3.85,4.2 -10.93,4.92 -15.81,1.6 -4.87,-3.31 -5.71,-9.39 -1.86,-13.59zm-0.49 -0.33c-4.06,4.43 -3.18,10.85 1.97,14.35 5.15,3.49 12.61,2.74 16.68,-1.7 4.06,-4.42 3.18,-10.85 -1.97,-14.34 -5.15,-3.5 -12.62,-2.74 -16.68,1.69z"/>
    <path id="_6_6314" class="fil42" d="M15.26 16.13c4,-4.35 11.33,-5.1 16.39,-1.66 5.06,3.43 5.92,9.74 1.93,14.09 -3.99,4.36 -11.33,5.1 -16.38,1.67 -5.06,-3.44 -5.93,-9.75 -1.94,-14.1zm-0.49 -0.34c-4.2,4.59 -3.29,11.24 2.04,14.86 5.33,3.62 13.06,2.83 17.26,-1.75 4.21,-4.59 3.3,-11.24 -2.03,-14.86 -5.33,-3.61 -13.06,-2.83 -17.27,1.75z"/>
    <path id="_7_6315" class="fil42" d="M14.94 15.91c4.13,-4.51 11.73,-5.28 16.97,-1.72 5.24,3.55 6.13,10.09 2,14.6 -4.13,4.5 -11.73,5.27 -16.97,1.72 -5.24,-3.56 -6.14,-10.1 -2,-14.6zm-0.49 -0.34c-4.35,4.74 -3.41,11.62 2.1,15.36 5.51,3.74 13.5,2.93 17.85,-1.81 4.35,-4.74 3.4,-11.62 -2.11,-15.36 -5.5,-3.74 -13.5,-2.93 -17.84,1.81z"/>
    <path id="_8_6316" class="fil43" d="M14.61 15.68c4.28,-4.66 12.14,-5.46 17.56,-1.78 5.42,3.68 6.34,10.44 2.07,15.11 -4.28,4.66 -12.14,5.46 -17.56,1.78 -5.42,-3.68 -6.35,-10.44 -2.07,-15.11zm-0.49 -0.33c-4.49,4.9 -3.52,12 2.17,15.86 5.69,3.86 13.95,3.03 18.44,-1.87 4.49,-4.89 3.51,-12 -2.18,-15.86 -5.69,-3.86 -13.94,-3.02 -18.43,1.87z"/>
    <path id="_9_6317" class="fil43" d="M14.28 15.46c4.42,-4.82 12.54,-5.64 18.14,-1.84 5.6,3.8 6.56,10.79 2.14,15.61 -4.42,4.82 -12.54,5.64 -18.14,1.84 -5.6,-3.8 -6.56,-10.79 -2.14,-15.61zm-0.49 -0.33c-4.63,5.05 -3.63,12.38 2.24,16.36 5.88,3.99 14.39,3.12 19.02,-1.93 4.64,-5.05 3.63,-12.37 -2.24,-16.36 -5.87,-3.99 -14.38,-3.12 -19.02,1.93z"/>
    <path id="_10_6318" class="fil43" d="M13.96 15.24c4.56,-4.97 12.94,-5.82 18.72,-1.9 5.78,3.93 6.77,11.14 2.21,16.11 -4.56,4.98 -12.95,5.83 -18.73,1.9 -5.78,-3.92 -6.77,-11.14 -2.2,-16.11zm-0.49 -0.33c-4.78,5.2 -3.74,12.76 2.31,16.86 6.05,4.11 14.83,3.22 19.6,-1.98 4.78,-5.21 3.74,-12.76 -2.31,-16.87 -6.05,-4.11 -14.83,-3.22 -19.6,1.99z"/>
    <path id="_11_6319" class="fil43" d="M13.63 15.02c4.7,-5.13 13.35,-6.01 19.31,-1.96 5.96,4.05 6.98,11.49 2.28,16.61 -4.71,5.13 -13.35,6.01 -19.31,1.96 -5.97,-4.04 -6.99,-11.48 -2.28,-16.61zm-0.49 -0.34c-4.92,5.37 -3.85,13.14 2.38,17.38 6.23,4.23 15.27,3.31 20.19,-2.05 4.92,-5.37 3.85,-13.14 -2.38,-17.37 -6.23,-4.23 -15.27,-3.32 -20.19,2.04z"/>
    <path id="_12_6320" class="fil44" d="M13.3 14.8c4.85,-5.29 13.76,-6.19 19.9,-2.02 6.14,4.17 7.19,11.83 2.34,17.12 -4.84,5.28 -13.75,6.19 -19.89,2.01 -6.14,-4.16 -7.19,-11.83 -2.35,-17.11zm-0.49 -0.34c-5.06,5.52 -3.96,13.52 2.45,17.88 6.41,4.35 15.71,3.41 20.78,-2.11 5.06,-5.52 3.96,-13.52 -2.45,-17.87 -6.42,-4.36 -15.72,-3.41 -20.78,2.1z"/>
    <path id="_13_6321" class="fil44" d="M12.97 14.57c4.99,-5.44 14.16,-6.37 20.49,-2.07 6.32,4.29 7.4,12.18 2.41,17.62 -4.99,5.44 -14.16,6.37 -20.48,2.08 -6.32,-4.3 -7.4,-12.19 -2.42,-17.63zm-0.49 -0.33c-5.2,5.67 -4.07,13.9 2.52,18.38 6.6,4.47 16.16,3.51 21.36,-2.17 5.21,-5.67 4.08,-13.9 -2.52,-18.38 -6.59,-4.47 -16.15,-3.5 -21.36,2.17z"/>
    <path id="_14_6322" class="fil44" d="M12.65 14.35c5.13,-5.59 14.56,-6.55 21.06,-2.14 6.51,4.42 7.62,12.54 2.49,18.13 -5.13,5.6 -14.56,6.55 -21.07,2.14 -6.5,-4.42 -7.61,-12.53 -2.48,-18.13zm-0.49 -0.33c-5.35,5.83 -4.19,14.28 2.58,18.88 6.78,4.6 16.6,3.6 21.95,-2.23 5.35,-5.82 4.19,-14.28 -2.59,-18.88 -6.77,-4.6 -16.6,-3.6 -21.94,2.23z"/>
    <path id="_15_6323" class="fil45" d="M12.32 14.13c5.27,-5.75 14.97,-6.74 21.65,-2.2 6.69,4.54 7.83,12.88 2.56,18.63 -5.28,5.75 -14.97,6.74 -21.66,2.2 -6.68,-4.54 -7.82,-12.88 -2.55,-18.63zm-0.49 -0.33c-5.49,5.98 -4.3,14.66 2.66,19.38 6.95,4.72 17.04,3.7 22.53,-2.28 5.48,-5.99 4.29,-14.67 -2.66,-19.39 -6.95,-4.72 -17.04,-3.7 -22.53,2.29z"/>
    <path id="_16_6324" class="fil45" d="M11.99 13.91c5.42,-5.91 15.38,-6.92 22.24,-2.26 6.87,4.66 8.04,13.23 2.62,19.13 -5.41,5.91 -15.37,6.92 -22.24,2.26 -6.86,-4.66 -8.03,-13.23 -2.62,-19.13zm-0.49 -0.34c-5.63,6.14 -4.41,15.05 2.73,19.89 7.13,4.85 17.48,3.8 23.11,-2.34 5.63,-6.14 4.41,-15.05 -2.72,-19.89 -7.14,-4.84 -17.49,-3.79 -23.12,2.34z"/>
    <path id="_17_6325" class="fil45" d="M11.67 13.69c5.56,-6.07 15.77,-7.1 22.82,-2.32 7.04,4.78 8.25,13.57 2.69,19.64 -5.56,6.06 -15.78,7.09 -22.82,2.31 -7.05,-4.78 -8.25,-13.57 -2.69,-19.63zm-0.49 -0.34c-5.78,6.3 -4.53,15.43 2.79,20.39 7.32,4.97 17.93,3.89 23.7,-2.4 5.77,-6.29 4.52,-15.42 -2.79,-20.39 -7.32,-4.97 -17.93,-3.89 -23.7,2.4z"/>
    <path id="_18_6326" class="fil45" d="M11.34 13.46c5.7,-6.21 16.18,-7.28 23.41,-2.37 7.22,4.9 8.46,13.92 2.76,20.14 -5.7,6.22 -16.19,7.28 -23.41,2.37 -7.23,-4.9 -8.46,-13.92 -2.76,-20.14zm-0.49 -0.33c-5.92,6.45 -4.64,15.81 2.86,20.9 7.5,5.09 18.37,3.98 24.29,-2.47 5.91,-6.45 4.63,-15.8 -2.87,-20.89 -7.49,-5.09 -18.37,-3.99 -24.28,2.46z"/>
    <path id="_19_6327" class="fil46" d="M11.01 13.24c5.85,-6.37 16.59,-7.46 24,-2.43 7.4,5.03 8.67,14.27 2.82,20.64 -5.84,6.37 -16.58,7.46 -23.99,2.43 -7.41,-5.02 -8.67,-14.27 -2.83,-20.64zm-0.49 -0.33c-6.06,6.6 -4.74,16.18 2.93,21.4 7.68,5.21 18.82,4.08 24.87,-2.53 6.06,-6.6 4.75,-16.18 -2.93,-21.39 -7.68,-5.22 -18.81,-4.09 -24.87,2.52z"/>
    <path id="_20_6328" class="fil46" d="M10.69 13.02c5.98,-6.53 16.99,-7.64 24.57,-2.49 7.59,5.15 8.89,14.61 2.9,21.14 -5.99,6.53 -16.99,7.65 -24.58,2.5 -7.58,-5.16 -8.88,-14.62 -2.89,-21.15zm-0.5 -0.33c-6.2,6.76 -4.85,16.56 3.01,21.9 7.85,5.33 19.25,4.18 25.45,-2.58 6.2,-6.77 4.86,-16.57 -3,-21.91 -7.86,-5.33 -19.26,-4.17 -25.46,2.59z"/>
    <path id="_21_6329" class="fil47" d="M10.36 12.8c6.13,-6.69 17.39,-7.83 25.16,-2.56 7.77,5.28 9.1,14.97 2.97,21.66 -6.13,6.68 -17.4,7.82 -25.16,2.55 -7.77,-5.28 -9.1,-14.97 -2.97,-21.65zm-0.49 -0.34c-6.35,6.92 -4.97,16.95 3.07,22.41 8.04,5.46 19.7,4.28 26.04,-2.64 6.34,-6.92 4.97,-16.95 -3.07,-22.41 -8.04,-5.45 -19.7,-4.27 -26.04,2.64z"/>
    <path id="_22_6330" class="fil47" d="M10.03 12.58c6.27,-6.84 17.8,-8.01 25.75,-2.62 7.95,5.4 9.31,15.32 3.04,22.16 -6.28,6.84 -17.8,8.01 -25.75,2.61 -7.95,-5.4 -9.31,-15.32 -3.04,-22.15zm-0.49 -0.34c-6.49,7.07 -5.08,17.33 3.14,22.91 8.22,5.58 20.14,4.37 26.63,-2.7 6.48,-7.07 5.08,-17.33 -3.14,-22.91 -8.22,-5.58 -20.14,-4.37 -26.63,2.7z"/>
    <path id="_23_6331" class="fil48" d="M9.7 12.35c6.42,-6.99 18.21,-8.19 26.34,-2.67 8.13,5.52 9.52,15.67 3.1,22.66 -6.41,6.99 -18.2,8.19 -26.33,2.67 -8.13,-5.52 -9.52,-15.66 -3.11,-22.66zm-0.49 -0.33c-6.63,7.23 -5.19,17.71 3.21,23.41 8.4,5.71 20.58,4.47 27.21,-2.76 6.63,-7.23 5.2,-17.71 -3.2,-23.41 -8.41,-5.7 -20.59,-4.47 -27.22,2.76z"/>
    <path id="_24_6332" class="fil48" d="M9.38 12.13c6.55,-7.15 18.61,-8.37 26.92,-2.73 8.31,5.64 9.73,16.01 3.17,23.16 -6.56,7.15 -18.61,8.37 -26.92,2.73 -8.31,-5.64 -9.73,-16.01 -3.17,-23.16zm-0.49 -0.33c-6.77,7.38 -5.31,18.09 3.27,23.91 8.58,5.83 21.03,4.57 27.8,-2.82 6.77,-7.38 5.3,-18.09 -3.28,-23.91 -8.58,-5.83 -21.02,-4.57 -27.79,2.82z"/>
    <path id="_25_6333" class="fil48" d="M9.05 11.91c6.7,-7.31 19.01,-8.56 27.5,-2.79 8.49,5.76 9.95,16.36 3.25,23.66 -6.7,7.31 -19.02,8.56 -27.51,2.79 -8.49,-5.76 -9.94,-16.36 -3.24,-23.66zm-0.49 -0.33c-6.91,7.53 -5.42,18.47 3.35,24.42 8.76,5.94 21.46,4.65 28.38,-2.88 6.91,-7.54 5.41,-18.48 -3.35,-24.42 -8.76,-5.95 -21.47,-4.66 -28.38,2.88z"/>
    <path id="_26_6334" class="fil48" d="M8.72 11.69c6.84,-7.46 19.42,-8.74 28.09,-2.85 8.67,5.88 10.16,16.7 3.31,24.17 -6.84,7.46 -19.41,8.73 -28.09,2.84 -8.67,-5.88 -10.15,-16.7 -3.31,-24.16zm-0.49 -0.34c-7.05,7.7 -5.53,18.86 3.42,24.93 8.94,6.07 21.91,4.75 28.96,-2.94 7.06,-7.69 5.53,-18.85 -3.41,-24.92 -8.94,-6.08 -21.91,-4.76 -28.97,2.93z"/>
    <path id="_27_6335" class="fil48" d="M8.4 11.46c6.98,-7.61 19.82,-8.91 28.67,-2.9 8.85,6.01 10.37,17.05 3.38,24.67 -6.98,7.61 -19.82,8.92 -28.67,2.91 -8.86,-6.01 -10.37,-17.06 -3.38,-24.68zm-0.49 -0.33c-7.2,7.85 -5.64,19.23 3.48,25.43 9.12,6.19 22.35,4.85 29.55,-3 7.2,-7.85 5.64,-19.23 -3.48,-25.43 -9.13,-6.19 -22.36,-4.85 -29.55,3z"/>
    <path id="_28_6336" class="fil49" d="M8.07 11.24c7.12,-7.77 20.23,-9.1 29.26,-2.97 9.03,6.14 10.58,17.41 3.45,25.18 -7.13,7.77 -20.23,9.1 -29.26,2.97 -9.03,-6.13 -10.58,-17.41 -3.45,-25.18zm-0.49 -0.33c-7.34,8 -5.75,19.61 3.55,25.93 9.3,6.32 22.8,4.95 30.14,-3.06 7.34,-8 5.75,-19.61 -3.56,-25.93 -9.3,-6.31 -22.79,-4.94 -30.13,3.06z"/>
    <path id="_29_6337" class="fil49" d="M7.74 11.02c7.27,-7.93 20.63,-9.28 29.85,-3.03 9.21,6.26 10.79,17.75 3.52,25.68 -7.27,7.93 -20.64,9.28 -29.85,3.03 -9.21,-6.26 -10.79,-17.75 -3.52,-25.68zm-0.49 -0.33c-7.48,8.16 -5.86,19.99 3.62,26.43 9.49,6.44 23.24,5.05 30.73,-3.11 7.48,-8.17 5.86,-20 -3.63,-26.44 -9.48,-6.44 -23.24,-5.04 -30.72,3.12z"/>
    <path id="_30_6338" class="fil49" d="M7.41 10.8c7.42,-8.08 21.04,-9.47 30.43,-3.09 9.4,6.38 11,18.1 3.59,26.18 -7.41,8.09 -21.03,9.47 -30.43,3.09 -9.39,-6.38 -11,-18.1 -3.59,-26.18zm-0.49 -0.33c-7.62,8.31 -5.97,20.37 3.69,26.93 9.67,6.56 23.69,5.14 31.31,-3.17 7.63,-8.32 5.98,-20.38 -3.69,-26.94 -9.66,-6.56 -23.68,-5.14 -31.31,3.18z"/>
    <path id="_31_6339" class="fil49" d="M7.09 10.58c7.55,-8.24 21.44,-9.65 31.01,-3.15 9.58,6.5 11.21,18.45 3.66,26.69 -7.56,8.23 -21.44,9.64 -31.02,3.14 -9.57,-6.5 -11.21,-18.45 -3.65,-26.68zm-0.49 -0.34c-7.77,8.47 -6.09,20.76 3.76,27.44 9.84,6.69 24.12,5.24 31.89,-3.23 7.77,-8.47 6.09,-20.76 -3.76,-27.44 -9.85,-6.69 -24.13,-5.24 -31.89,3.23z"/>
    <path id="_32_6340" class="fil49" d="M6.76 10.35c7.7,-8.39 21.85,-9.82 31.6,-3.2 9.76,6.62 11.42,18.79 3.73,27.19 -7.7,8.39 -21.85,9.83 -31.6,3.2 -9.76,-6.62 -11.43,-18.79 -3.73,-27.19zm-0.49 -0.33c-7.91,8.63 -6.2,21.14 3.83,27.95 10.02,6.8 24.57,5.33 32.48,-3.3 7.91,-8.63 6.19,-21.14 -3.83,-27.94 -10.03,-6.81 -24.57,-5.34 -32.48,3.29z"/>
    <path id="_33_6341" class="fil49" d="M6.43 10.13c7.84,-8.55 22.25,-10.01 32.19,-3.26 9.94,6.74 11.63,19.14 3.79,27.69 -7.84,8.55 -22.25,10.01 -32.18,3.26 -9.94,-6.74 -11.64,-19.14 -3.8,-27.69zm-0.49 -0.33c-8.05,8.78 -6.31,21.52 3.9,28.45 10.21,6.93 25.01,5.42 33.06,-3.36 8.06,-8.78 6.31,-21.52 -3.89,-28.44 -10.21,-6.93 -25.01,-5.43 -33.07,3.35z"/>
    <path id="_34_6342" class="fil50" d="M6.11 9.91c7.98,-8.7 22.65,-10.19 32.77,-3.32 10.11,6.86 11.84,19.49 3.86,28.19 -7.98,8.71 -22.65,10.19 -32.77,3.33 -10.12,-6.87 -11.85,-19.5 -3.86,-28.2zm-0.5 -0.33c-8.19,8.93 -6.42,21.9 3.97,28.95 10.39,7.05 25.46,5.52 33.65,-3.41 8.2,-8.94 6.42,-21.9 -3.97,-28.96 -10.38,-7.05 -25.45,-5.52 -33.65,3.42z"/>
    <path id="_35_6343" class="fil50" d="M5.78 9.69c8.12,-8.86 23.06,-10.38 33.35,-3.39 10.3,7 12.06,19.84 3.94,28.7 -8.13,8.86 -23.06,10.38 -33.36,3.39 -10.3,-6.99 -12.06,-19.84 -3.93,-28.7zm-0.49 -0.33c-8.34,9.09 -6.53,22.28 4.03,29.45 10.57,7.18 25.9,5.62 34.24,-3.47 8.34,-9.1 6.53,-22.28 -4.04,-29.46 -10.57,-7.17 -25.89,-5.62 -34.23,3.48z"/>
    <path id="_36_6344" class="fil50" d="M5.45 9.47c8.27,-9.02 23.47,-10.56 33.94,-3.45 10.48,7.12 12.27,20.19 4,29.21 -8.26,9.01 -23.46,10.55 -33.94,3.44 -10.48,-7.11 -12.27,-20.19 -4,-29.2zm-0.49 -0.34c-8.48,9.25 -6.64,22.66 4.11,29.96 10.75,7.3 26.33,5.72 34.82,-3.53 8.48,-9.25 6.64,-22.66 -4.11,-29.96 -10.75,-7.3 -26.34,-5.71 -34.82,3.53z"/>
    <path id="_37_6345" class="fil50" d="M5.12 9.24c8.41,-9.17 23.87,-10.73 34.53,-3.5 10.66,7.24 12.48,20.54 4.07,29.71 -8.41,9.17 -23.87,10.74 -34.53,3.5 -10.65,-7.24 -12.48,-20.54 -4.07,-29.71zm-0.49 -0.33c-8.62,9.4 -6.75,23.04 4.18,30.46 10.93,7.42 26.78,5.81 35.4,-3.59 8.63,-9.4 6.76,-23.04 -4.17,-30.46 -10.93,-7.42 -26.78,-5.81 -35.41,3.59z"/>
    <path id="_38_6346" class="fil50" d="M4.8 9.02c8.55,-9.32 24.27,-10.92 35.11,-3.56 10.84,7.36 12.69,20.88 4.14,30.21 -8.55,9.33 -24.27,10.92 -35.11,3.56 -10.84,-7.36 -12.7,-20.88 -4.14,-30.21zm-0.49 -0.33c-8.77,9.56 -6.87,23.42 4.24,30.96 11.11,7.55 27.22,5.91 35.99,-3.65 8.77,-9.56 6.87,-23.42 -4.24,-30.96 -11.11,-7.54 -27.23,-5.91 -35.99,3.65z"/>
    <path id="_39_6347" class="fil50" d="M4.47 8.8c8.7,-9.48 24.68,-11.1 35.7,-3.62 11.02,7.48 12.9,21.23 4.21,30.71 -8.7,9.48 -24.68,11.1 -35.7,3.62 -11.02,-7.48 -12.9,-21.23 -4.21,-30.71zm-0.49 -0.33c-8.91,9.71 -6.98,23.8 4.31,31.47 11.29,7.66 27.67,6 36.58,-3.71 8.91,-9.72 6.98,-23.81 -4.32,-31.47 -11.29,-7.67 -27.66,-6.01 -36.57,3.71z"/>
    <path id="_40_6348" class="fil50" d="M4.14 8.58c8.84,-9.64 25.09,-11.29 36.29,-3.68 11.2,7.6 13.11,21.58 4.27,31.21 -8.83,9.64 -25.08,11.29 -36.28,3.68 -11.2,-7.6 -13.11,-21.58 -4.28,-31.21zm-0.49 -0.33c-9.05,9.86 -7.09,24.18 4.38,31.97 11.47,7.78 28.11,6.1 37.16,-3.77 9.06,-9.87 7.09,-24.19 -4.38,-31.97 -11.47,-7.79 -28.11,-6.11 -37.16,3.77z"/>
    <path id="_41_6349" class="fil50" d="M3.82 8.36c8.98,-9.8 25.48,-11.47 36.86,-3.74 11.39,7.72 13.33,21.92 4.35,31.72 -8.98,9.79 -25.49,11.46 -36.87,3.74 -11.38,-7.73 -13.32,-21.93 -4.34,-31.72zm-0.33 -0.23c-9.12,9.95 -7.15,24.38 4.42,32.23 11.56,7.85 28.33,6.15 37.45,-3.8 9.12,-9.95 7.14,-24.38 -4.42,-32.23 -11.56,-7.84 -28.33,-6.14 -37.45,3.8z"/>
   </g>
  </g>
  <path class="fil39" d="M13.53 4.54l7.11 4.74c0,0 -1.17,0.78 -1.17,0.78 0,0 1.62,1.11 1.62,1.11l-7.55 5.07c-0.48,0.32 -1.03,0.48 -1.6,0.48 -0.57,0 -1.13,-0.16 -1.6,-0.48l-7.55 -5.03c1.65,-1.15 1.65,-1.15 1.65,-1.15 -1.18,-0.79 -1.18,-0.79 -1.18,-0.79l7.08 -4.73c0.47,-0.31 1.03,-0.48 1.6,-0.48 0.57,0 1.12,0.17 1.59,0.48z"/>
  <path class="fil51" d="M13.55 2.3l7.34 4.89c0.32,0.22 0.51,0.58 0.51,0.96 0,0.39 -0.19,0.75 -0.51,0.96l-7.34 4.89c-0.47,0.31 -1.03,0.48 -1.59,0.48 -0.57,0 -1.13,-0.17 -1.6,-0.48l-7.34 -4.89c-0.32,-0.21 -0.51,-0.57 -0.51,-0.96 0,-0.38 0.19,-0.74 0.51,-0.96l7.34 -4.89c0.47,-0.31 1.03,-0.48 1.6,-0.48 0.56,0 1.12,0.17 1.59,0.48z"/>
 </g>
</svg>
