<?xml version="1.0" encoding="UTF-8"?>
<!DOCTYPE svg PUBLIC "-//W3C//DTD SVG 1.1//EN" "http://www.w3.org/Graphics/SVG/1.1/DTD/svg11.dtd">
<!-- Creator: CorelDRAW -->
<svg xmlns="http://www.w3.org/2000/svg" xml:space="preserve" width="3.45in" height="2.7in" version="1.1" style="shape-rendering:geometricPrecision; text-rendering:geometricPrecision; image-rendering:optimizeQuality; fill-rule:evenodd; clip-rule:evenodd"
viewBox="0 0 3450 2700"
 xmlns:xlink="http://www.w3.org/1999/xlink"
 xmlns:xodm="http://www.corel.com/coreldraw/odm/2003">
 <defs>
  <style type="text/css">
   <![CDATA[
    .str0 {stroke:#D7D8D8;stroke-width:6.94;stroke-miterlimit:2.61313}
    .fil0 {fill:none}
    .fil1 {fill:#753F1D}
    .fil2 {fill:#9E5725}
    .fil3 {fill:url(#id2)}
   ]]>
  </style>
    <clipPath id="id0">
     <path d="M-269.62 4.7l3984.09 -20.13 0 2466.57 -3984.09 20.13 0 -2466.57z"/>
    </clipPath>
    <clipPath id="id1">
     <path d="M-277.61 448.72l4000.08 0 0 2535.83 -4000.08 0 0 -2535.83z"/>
    </clipPath>
  <linearGradient id="id2" gradientUnits="userSpaceOnUse" x1="1736.85" y1="2692.11" x2="1708" y2="741.17">
   <stop offset="0" style="stop-opacity:1; stop-color:#E67E22"/>
   <stop offset="1" style="stop-opacity:1; stop-color:#EC9F5A"/>
  </linearGradient>
 </defs>
 <g id="Layer_x0020_1">
  <metadata id="CorelCorpID_0Corel-Layer"/>
  <path class="fil0 str0" d="M8328.22 2353.07l3075.55 0c132,0 240,-108 240,-240l0 -2215.7c0,-132 -108,-240 -240,-240l-3075.55 0c-132,0 -240,108 -240,240l0 2215.7c0,132 108,240 240,240z"/>
  <path class="fil0 str0" d="M11643.77 1456.46l-377.55 0c-116.56,0 -215.39,-73.47 -248.97,-185.08l-238.13 -791.37c-16.23,-53.94 -56.34,-88.08 -103.4,-88 -47.05,0.08 -87.09,34.35 -103.2,88.34l-291.32 976.12 -53.23 178.37c-38.13,127.76 -132.94,208.8 -244.28,208.8l-277.85 0c-111.34,0 -206.15,-81.04 -244.28,-208.8l-53.23 -178.37 -293.83 -976.46c-16.23,-53.94 -56.34,-88.08 -103.4,-88 -47.05,0.08 -87.09,34.35 -103.2,88.34l-235.91 790.47c-33.39,111.89 -132.38,185.65 -249.14,185.65l-334.63 0"/>
  <path class="fil0 str0" d="M9011.1 -63.88l2.28 0c149.68,0.34 276.61,92.91 322.7,235.31l329.83 1019.14c25.8,79.72 96.97,131.5 180.77,131.5l3.57 0c83.8,0 154.96,-51.77 180.77,-131.5l329.83 -1019.14c46.09,-142.41 173.02,-234.97 322.7,-235.31l2.28 -0 7.78 0c147.04,0 272.16,88.7 320.83,227.46l123.96 353.39c30.06,85.7 107.34,140.49 198.16,140.49l307.22 0m-2632.67 -721.34l-7.78 0c-147.04,0 -272.16,88.7 -320.83,227.46l-123.96 353.39c-30.06,85.7 -107.34,140.49 -198.16,140.49l-272.15 0"/>
 </g>
 <g id="Layer_x0020_1_2">
  <metadata id="CorelCorpID_1Corel-Layer"/>
  <path class="fil1" d="M2517.28 287.86c141.23,0 261.39,88.23 308.14,226.25l119.06 351.52c28.87,85.24 103.09,139.74 190.32,139.74l295.07 0 0 -756.05c0,-131.3 -103.72,-238.72 -230.5,-238.72l-2953.88 0c-126.78,0 -230.5,107.43 -230.5,238.72l0 756.05 261.38 0c87.23,0 161.45,-54.5 190.32,-139.74l119.06 -351.52c46.75,-138.02 166.92,-226.25 308.14,-226.25l7.47 0 2.19 0c143.76,0.34 265.67,92.41 309.94,234.06l316.78 1013.72c24.78,79.3 93.13,130.8 173.61,130.8l3.43 0c80.48,0 148.83,-51.5 173.62,-130.8l316.78 -1013.72c44.26,-141.65 166.18,-233.72 309.93,-234.06l2.19 -0 7.47 0z"/>
  <g id="_3038571148272">
   <g style="clip-path:url(#id0)">
    <image x="-269.62" y="-15.44" width="3984.09" height="2486.71" xlink:href="uniproc-logo_Images\uniproc-logo_ImgID1.png"/>
   </g>
  </g>
  <path class="fil2" d="M575.65 1615.46l226.58 -786.27c15.48,-53.71 53.93,-87.79 99.12,-87.87 45.19,-0.07 83.72,33.88 99.31,87.54l282.2 971.26 51.13 177.42c36.62,127.08 127.68,207.69 234.61,207.69l266.86 0c106.94,0 198,-80.61 234.62,-207.69l51.13 -177.42 279.8 -970.93c15.48,-53.71 53.93,-87.79 99.12,-87.87 45.19,-0.07 83.72,33.88 99.31,87.54l228.71 787.17c32.26,111.02 127.18,184.1 239.12,184.1l362.61 0 0 -794.76 -295.07 0c-87.23,0 -161.44,-54.5 -190.32,-139.74l-119.06 -351.52c-46.75,-138.02 -166.91,-226.25 -308.14,-226.25l-7.47 0 -2.19 0c-143.76,0.34 -265.67,92.41 -309.93,234.06l-316.78 1013.72c-24.78,79.3 -93.14,130.8 -173.62,130.8l-3.43 0c-80.48,0 -148.83,-51.5 -173.61,-130.8l-316.78 -1013.72c-44.26,-141.65 -166.18,-233.72 -309.94,-234.06l-2.19 -0 -7.47 0c-141.22,0 -261.39,88.23 -308.14,226.25l-119.06 351.52c-28.87,85.24 -103.09,139.74 -190.32,139.74l-261.38 0 0 794.76 321.39 0c112.15,0 207.22,-73.37 239.29,-184.66z"/>
  <g id="_3038571147744">
   <g style="clip-path:url(#id1)">
    <image x="-277.61" y="448.72" width="4000.08" height="2535.83" xlink:href="uniproc-logo_Images\uniproc-logo_ImgID2.png"/>
   </g>
  </g>
  <path class="fil3" d="M1000.66 828.86c-15.59,-53.66 -54.11,-87.61 -99.31,-87.54 -45.19,0.08 -83.64,34.17 -99.12,87.87l-226.58 786.27c-32.07,111.29 -127.14,184.66 -239.29,184.66l-321.39 0 0 653.12c0,131.3 103.72,238.72 230.5,238.72l2953.88 0c126.78,0 230.5,-107.43 230.5,-238.72l0 -653.12 -362.61 0c-111.94,0 -206.87,-73.08 -239.12,-184.1l-228.71 -787.17c-15.59,-53.66 -54.11,-87.61 -99.31,-87.54 -45.19,0.08 -83.64,34.17 -99.12,87.87l-279.8 970.93 -51.13 177.42c-36.62,127.08 -127.68,207.69 -234.62,207.69l-266.86 0c-106.93,0 -197.99,-80.61 -234.61,-207.69l-51.13 -177.42 -282.2 -971.26z"/>
 </g>
</svg>
